<svg width="318" height="63" viewBox="0 0 318 63" fill="none" xmlns="http://www.w3.org/2000/svg">
<path d="M12.384 16.736C17.6 16.736 21.776 17.92 24.912 20.288C28.08 22.624 29.664 26.928 29.664 33.2C29.664 39.376 28.128 43.728 25.056 46.256C21.984 48.752 18 50 13.104 50H3.12L3.12 16.736H12.384ZM10.992 22.448V44.288H13.584C16.176 44.288 18.144 43.488 19.488 41.888C20.832 40.256 21.504 37.36 21.504 33.2C21.504 30.352 21.168 28.144 20.496 26.576C19.824 25.008 18.912 23.936 17.76 23.36C16.608 22.752 15.184 22.448 13.488 22.448H10.992ZM54.0289 42.608C54.0289 43.568 54.1569 44.272 54.4129 44.72C54.7009 45.168 55.1489 45.504 55.7569 45.728L54.1729 50.672C52.6049 50.544 51.3249 50.208 50.3329 49.664C49.3409 49.088 48.5729 48.192 48.0289 46.976C46.3649 49.536 43.8049 50.816 40.3489 50.816C37.8209 50.816 35.8049 50.08 34.3009 48.608C32.7969 47.136 32.0449 45.216 32.0449 42.848C32.0449 40.064 33.0689 37.936 35.1169 36.464C37.1649 34.992 40.1249 34.256 43.9969 34.256H46.5889V33.152C46.5889 31.648 46.2689 30.624 45.6289 30.08C44.9889 29.504 43.8689 29.216 42.2689 29.216C41.4369 29.216 40.4289 29.344 39.2449 29.6C38.0609 29.824 36.8449 30.144 35.5969 30.56L33.8689 25.568C35.4689 24.96 37.1009 24.496 38.7649 24.176C40.4609 23.856 42.0289 23.696 43.4689 23.696C47.1169 23.696 49.7889 24.448 51.4849 25.952C53.1809 27.456 54.0289 29.712 54.0289 32.72V42.608ZM42.5569 45.392C44.2849 45.392 45.6289 44.576 46.5889 42.944V38.432H44.7169C42.9889 38.432 41.6929 38.736 40.8289 39.344C39.9969 39.952 39.5809 40.896 39.5809 42.176C39.5809 43.2 39.8369 44 40.3489 44.576C40.8929 45.12 41.6289 45.392 42.5569 45.392ZM81.3026 24.512L73.2866 50H64.3106L56.1026 24.512H64.3586L68.8706 44.24L73.5746 24.512H81.3026ZM91.56 24.512V50H83.976V24.512H91.56ZM87.72 11.072C89.032 11.072 90.104 11.488 90.936 12.32C91.8 13.12 92.232 14.144 92.232 15.392C92.232 16.64 91.8 17.68 90.936 18.512C90.104 19.312 89.032 19.712 87.72 19.712C86.408 19.712 85.336 19.312 84.504 18.512C83.672 17.68 83.256 16.64 83.256 15.392C83.256 14.144 83.672 13.12 84.504 12.32C85.336 11.488 86.408 11.072 87.72 11.072ZM131.81 16.736L131.042 22.784H122.834V50H114.962V22.784H106.37V16.736H131.81ZM149.763 23.696C151.971 23.696 153.699 24.368 154.947 25.712C156.195 27.056 156.819 28.944 156.819 31.376V50H149.235V32.672C149.235 31.392 149.027 30.512 148.611 30.032C148.195 29.52 147.603 29.264 146.835 29.264C145.299 29.264 143.827 30.352 142.419 32.528V50H134.835V14.384L142.419 13.616V27.248C143.475 26.064 144.595 25.184 145.779 24.608C146.963 24 148.291 23.696 149.763 23.696ZM173.579 23.696C177.483 23.696 180.539 24.896 182.747 27.296C184.955 29.664 186.059 32.992 186.059 37.28C186.059 40 185.547 42.384 184.523 44.432C183.531 46.448 182.091 48.016 180.203 49.136C178.347 50.256 176.139 50.816 173.579 50.816C169.707 50.816 166.651 49.632 164.411 47.264C162.203 44.864 161.099 41.52 161.099 37.232C161.099 34.512 161.595 32.144 162.587 30.128C163.611 28.08 165.051 26.496 166.907 25.376C168.795 24.256 171.019 23.696 173.579 23.696ZM173.579 29.264C172.043 29.264 170.891 29.92 170.123 31.232C169.355 32.512 168.971 34.512 168.971 37.232C168.971 40.016 169.339 42.048 170.075 43.328C170.843 44.608 172.011 45.248 173.579 45.248C175.115 45.248 176.267 44.608 177.035 43.328C177.803 42.016 178.187 40 178.187 37.28C178.187 34.496 177.803 32.464 177.035 31.184C176.299 29.904 175.147 29.264 173.579 29.264ZM218.746 23.696C220.762 23.696 222.378 24.384 223.594 25.76C224.81 27.104 225.418 28.976 225.418 31.376V50H217.834V32.672C217.834 30.4 217.114 29.264 215.674 29.264C214.874 29.264 214.17 29.536 213.562 30.08C212.954 30.624 212.362 31.456 211.786 32.576V50H204.202V32.672C204.202 30.4 203.482 29.264 202.042 29.264C201.274 29.264 200.57 29.552 199.93 30.128C199.322 30.672 198.73 31.488 198.154 32.576V50H190.57V24.512H197.194L197.722 27.488C198.714 26.208 199.802 25.264 200.986 24.656C202.202 24.016 203.578 23.696 205.114 23.696C206.554 23.696 207.786 24.048 208.81 24.752C209.866 25.456 210.634 26.448 211.114 27.728C212.138 26.352 213.258 25.344 214.474 24.704C215.722 24.032 217.146 23.696 218.746 23.696ZM251.373 42.608C251.373 43.568 251.501 44.272 251.757 44.72C252.045 45.168 252.493 45.504 253.101 45.728L251.517 50.672C249.949 50.544 248.669 50.208 247.677 49.664C246.685 49.088 245.917 48.192 245.373 46.976C243.709 49.536 241.149 50.816 237.693 50.816C235.165 50.816 233.149 50.08 231.645 48.608C230.141 47.136 229.389 45.216 229.389 42.848C229.389 40.064 230.413 37.936 232.461 36.464C234.509 34.992 237.469 34.256 241.341 34.256H243.933V33.152C243.933 31.648 243.613 30.624 242.973 30.08C242.333 29.504 241.213 29.216 239.613 29.216C238.781 29.216 237.773 29.344 236.589 29.6C235.405 29.824 234.189 30.144 232.941 30.56L231.213 25.568C232.813 24.96 234.445 24.496 236.109 24.176C237.805 23.856 239.373 23.696 240.813 23.696C244.461 23.696 247.133 24.448 248.829 25.952C250.525 27.456 251.373 29.712 251.373 32.72V42.608ZM239.901 45.392C241.629 45.392 242.973 44.576 243.933 42.944V38.432H242.061C240.333 38.432 239.037 38.736 238.173 39.344C237.341 39.952 236.925 40.896 236.925 42.176C236.925 43.2 237.181 44 237.693 44.576C238.237 45.12 238.973 45.392 239.901 45.392ZM275.366 24.512V29.84L263.846 44.24H275.606L274.934 50H255.062V44.624L266.63 30.224H256.07V24.512H275.366ZM287.029 24.512V50H279.445V24.512H287.029ZM283.189 11.072C284.501 11.072 285.573 11.488 286.405 12.32C287.269 13.12 287.701 14.144 287.701 15.392C287.701 16.64 287.269 17.68 286.405 18.512C285.573 19.312 284.501 19.712 283.189 19.712C281.877 19.712 280.805 19.312 279.973 18.512C279.141 17.68 278.725 16.64 278.725 15.392C278.725 14.144 279.141 13.12 279.973 12.32C280.805 11.488 281.877 11.072 283.189 11.072ZM307.92 23.696C310.128 23.696 311.856 24.368 313.104 25.712C314.352 27.056 314.976 28.944 314.976 31.376V50H307.392V32.672C307.392 31.392 307.184 30.512 306.768 30.032C306.384 29.52 305.792 29.264 304.992 29.264C303.456 29.264 301.984 30.368 300.576 32.576V50H292.992V24.512H299.616L300.144 27.536C301.232 26.256 302.4 25.296 303.648 24.656C304.928 24.016 306.352 23.696 307.92 23.696Z" fill="#D2A121"/>
<rect x="83" width="10" height="50" fill="url(#paint0_linear_56_5)"/>
<rect x="278" width="10" height="50" fill="url(#paint1_linear_56_5)"/>
<defs>
<linearGradient id="paint0_linear_56_5" x1="88" y1="0" x2="88" y2="50" gradientUnits="userSpaceOnUse">
<stop stop-color="#D2A121"/>
<stop offset="1" stop-color="#A47705"/>
</linearGradient>
<linearGradient id="paint1_linear_56_5" x1="283" y1="0" x2="283" y2="50" gradientUnits="userSpaceOnUse">
<stop stop-color="#D2A121"/>
<stop offset="1" stop-color="#A47705"/>
</linearGradient>
</defs>
</svg>
