<svg width="20" height="20" viewBox="0 0 20 20" fill="none" xmlns="http://www.w3.org/2000/svg">
<path d="M17.5 4.16667C16.575 3.875 15.5584 3.75 14.5834 3.75C12.9584 3.75 11.2084 4.08333 10 5C8.79171 4.08333 7.04171 3.75 5.41671 3.75C3.79171 3.75 2.04171 4.08333 0.833374 5V17.2083C0.833374 17.4167 1.04171 17.625 1.25004 17.625C1.33337 17.625 1.37504 17.5833 1.45837 17.5833C2.58337 17.0417 4.20837 16.6667 5.41671 16.6667C7.04171 16.6667 8.79171 17 10 17.9167C11.125 17.2083 13.1667 16.6667 14.5834 16.6667C15.9584 16.6667 17.375 16.9167 18.5417 17.5417C18.625 17.5833 18.6667 17.5833 18.75 17.5833C18.9584 17.5833 19.1667 17.375 19.1667 17.1667V5C18.6667 4.625 18.125 4.375 17.5 4.16667ZM17.5 15.4167C16.5834 15.125 15.5834 15 14.5834 15C13.1667 15 11.125 15.5417 10 16.25V6.66667C11.125 5.95833 13.1667 5.41667 14.5834 5.41667C15.5834 5.41667 16.5834 5.54167 17.5 5.83333V15.4167Z" fill="url(#paint0_linear_29_90)"/>
<path d="M14.5834 8.75C15.3167 8.75 16.025 8.825 16.6667 8.96667V7.7C16.0084 7.575 15.3 7.5 14.5834 7.5C13.1667 7.5 11.8834 7.74167 10.8334 8.19167V9.575C11.775 9.04167 13.0834 8.75 14.5834 8.75Z" fill="url(#paint1_linear_29_90)"/>
<path d="M10.8334 10.4083V11.7917C11.775 11.2583 13.0834 10.9667 14.5834 10.9667C15.3167 10.9667 16.025 11.0417 16.6667 11.1833V9.91667C16.0084 9.79167 15.3 9.71667 14.5834 9.71667C13.1667 9.71667 11.8834 9.96667 10.8334 10.4083Z" fill="url(#paint2_linear_29_90)"/>
<path d="M14.5834 11.9417C13.1667 11.9417 11.8834 12.1833 10.8334 12.6333V14.0167C11.775 13.4833 13.0834 13.1917 14.5834 13.1917C15.3167 13.1917 16.025 13.2667 16.6667 13.4083V12.1417C16.0084 12.0083 15.3 11.9417 14.5834 11.9417Z" fill="url(#paint3_linear_29_90)"/>
<defs>
<linearGradient id="paint0_linear_29_90" x1="10" y1="3.75" x2="10" y2="17.9167" gradientUnits="userSpaceOnUse">
<stop stop-color="#575757"/>
<stop offset="1" stop-color="#202020"/>
</linearGradient>
<linearGradient id="paint1_linear_29_90" x1="13.75" y1="7.5" x2="13.75" y2="9.575" gradientUnits="userSpaceOnUse">
<stop stop-color="#575757"/>
<stop offset="1" stop-color="#202020"/>
</linearGradient>
<linearGradient id="paint2_linear_29_90" x1="13.75" y1="9.71667" x2="13.75" y2="11.7917" gradientUnits="userSpaceOnUse">
<stop stop-color="#575757"/>
<stop offset="1" stop-color="#202020"/>
</linearGradient>
<linearGradient id="paint3_linear_29_90" x1="13.75" y1="11.9417" x2="13.75" y2="14.0167" gradientUnits="userSpaceOnUse">
<stop stop-color="#575757"/>
<stop offset="1" stop-color="#202020"/>
</linearGradient>
</defs>
</svg>
